<?xml version="1.0" encoding="UTF-8"?>
<svg id="Layer_1" data-name="Layer 1" xmlns="http://www.w3.org/2000/svg" viewBox="0 0 237.92 991.5">
  <path d="M234.94,900.58l-42.14,6.3v44.8l42.14,6.3v33.51L2.65,954.33v-53.42l232.28-37.17v36.83Zm-73.67,11.28l-117.47,17.59,117.47,17.59v-35.17Z"/>
  <path d="M56.08,737.65h8.3c23.89,0,39.16,7.3,46.79,23.56,7.63-19.58,25.22-27.21,49.77-27.21h18.92c35.84,0,55.08,18.92,55.08,55.42v57.41H2.65v-55.08c0-37.83,17.59-54.09,53.43-54.09Zm41.15,72.67v-14.27c0-13.6-5.97-21.9-24.56-21.9h-12.94c-16.59,0-23.89,5.64-23.89,18.58v17.59h61.39Zm104.53,0v-20.91c0-12.28-5.64-18.91-22.9-18.91h-20.24c-21.57,0-28.21,6.97-28.21,23.56v16.26h71.34Z"/>
  <path d="M0,659.67c0-35.84,21.24-55.42,58.4-55.42h120.79c37.17,0,58.4,19.58,58.4,55.42s-21.24,55.42-58.4,55.42H58.4c-37.17,0-58.4-19.58-58.4-55.42Zm204.41,0c0-11.61-6.3-18.91-22.9-18.91H56.08c-16.59,0-22.9,7.3-22.9,18.91s6.3,18.92,22.9,18.92h125.43c16.59,0,22.9-7.3,22.9-18.92Z"/>
  <path d="M181.84,545.85c16.59,0,22.57-7.3,22.57-18.91s-5.97-18.91-22.57-18.91H2.65v-34.51H179.52c37.17,0,58.4,18.58,58.4,54.42s-21.24,54.42-58.4,54.42H2.65v-36.5H181.84Z"/>
  <path d="M2.65,346.42H35.84v38.16H234.94v36.5H35.84v38.16H2.65v-112.82Z"/>
  <path d="M2.65,176.86v-50.77H234.94v34.51H68.36l166.58,25.22v34.51l-164.26,27.21H234.94v31.86H2.65v-50.77l164.92-26.88L2.65,176.86Z"/>
  <path d="M100.54,12.94h33.18V63.05h68.03V0h33.18V99.55H2.65V0H35.84V63.05H100.54V12.94Z"/>
</svg>