<?xml version="1.0" encoding="UTF-8"?>
<svg id="Layer_1" data-name="Layer 1" xmlns="http://www.w3.org/2000/svg" viewBox="0 0 271.98 1001.28">
  <path d="M205.12,876.69c42.54,0,66.85,21.27,66.85,62.3s-24.31,62.3-66.85,62.3H66.85c-42.54,0-66.85-21.27-66.85-62.3s24.31-62.3,66.85-62.3h25.83v39.51h-28.49c-18.99,0-26.21,8.36-26.21,21.65s7.22,21.65,26.21,21.65H207.78c18.99,0,25.83-8.36,25.83-21.65s-6.84-21.65-25.83-21.65h-37.99v-39.51h35.33Z"/>
  <path d="M0,791.23c0-41.02,24.31-63.44,66.85-63.44H205.12c42.54,0,66.85,22.41,66.85,63.44s-24.31,63.44-66.85,63.44H66.85c-42.54,0-66.85-22.41-66.85-63.44Zm233.99,0c0-13.3-7.22-21.65-26.21-21.65H64.2c-18.99,0-26.21,8.36-26.21,21.65s7.22,21.65,26.21,21.65H207.78c18.99,0,26.21-8.36,26.21-21.65Z"/>
  <path d="M268.94,663.6v37.61H3.04v-52.42l159.16-42.92H3.04v-37.23H268.94v42.92l-192.59,52.04h192.59Z"/>
  <path d="M3.04,421.63H41.02v43.68h227.91v41.78H41.02v43.68H3.04v-129.15Z"/>
  <path d="M268.94,324.77l-48.24,7.22v51.28l48.24,7.22v38.37L3.04,386.31v-61.16l265.9-42.54v42.16Zm-84.33,12.92l-134.47,20.13,134.47,20.13v-40.26Z"/>
  <path d="M205.12,142.44c42.54,0,66.85,21.27,66.85,62.3s-24.31,62.3-66.85,62.3H66.85C24.31,267.03,0,245.76,0,204.74s24.31-62.3,66.85-62.3h25.83v39.51h-28.49c-18.99,0-26.21,8.36-26.21,21.65s7.22,21.65,26.21,21.65H207.78c18.99,0,25.83-8.36,25.83-21.65s-6.84-21.65-25.83-21.65h-37.99v-39.51h35.33Z"/>
  <path d="M3.04,0H41.02V43.68h227.91v41.78H41.02v43.68H3.04V0Z"/>
</svg>