<?xml version="1.0" encoding="UTF-8"?>
<svg id="Layer_1" data-name="Layer 1" xmlns="http://www.w3.org/2000/svg" viewBox="0 0 230.88 1007.68">
  <path d="M58.37,902.56h29.34c36.12,0,55.79,17.41,55.79,52.88v16.77h84.81v35.47H2.58v-52.24c0-35.47,19.67-52.88,55.79-52.88Zm52.88,69.65v-16.77c0-11.29-5.16-17.41-21.28-17.41H56.11c-16.12,0-21.28,6.13-21.28,17.41v16.77H111.25Z"/>
  <path d="M0,835.16c0-34.83,20.64-53.85,56.75-53.85h117.38c36.12,0,56.75,19.03,56.75,53.85s-20.64,53.85-56.75,53.85H56.75c-36.12,0-56.75-19.03-56.75-53.85Zm198.64,0c0-11.29-6.13-18.38-22.25-18.38H54.5c-16.12,0-22.25,7.09-22.25,18.38s6.13,18.38,22.25,18.38h121.89c16.12,0,22.25-7.09,22.25-18.38Z"/>
  <path d="M200.57,687.47h-35.47c-20.96,0-28.7,7.09-28.7,23.22v12.25h91.9v35.47H2.58v-53.53c0-36.76,17.09-52.56,51.92-52.56h17.74c23.22,0,38.37,7.42,45.79,23.22,7.42-17.73,24.51-23.54,48.05-23.54h34.83c10.96,0,19.03-.32,27.41-3.87v36.12c-5.8,1.93-9.35,3.22-27.73,3.22Zm-96.42,35.47v-13.87c0-13.22-5.8-21.28-23.86-21.28h-22.25c-16.12,0-23.22,5.48-23.22,18.06v17.09H104.16Z"/>
  <path d="M2.58,529.47H34.83v37.08H228.3v35.47H34.83v37.08H2.58v-109.64Z"/>
  <path d="M102.87,432.74h32.25v45.79h93.19v35.47H2.58v-93.84H34.83v58.37H102.87v-45.79Z"/>
  <path d="M0,352.12c0-34.83,20.64-53.85,56.75-53.85h117.38c36.12,0,56.75,19.03,56.75,53.85s-20.64,53.85-56.75,53.85H56.75c-36.12,0-56.75-19.03-56.75-53.85Zm198.64,0c0-11.29-6.13-18.38-22.25-18.38H54.5c-16.12,0-22.25,7.09-22.25,18.38s6.13,18.38,22.25,18.38h121.89c16.12,0,22.25-7.09,22.25-18.38Z"/>
  <path d="M2.58,239.91H196.06v-58.37h32.25v93.84H2.58v-35.47Z"/>
  <path d="M2.58,130.59H228.3v35.47H2.58v-35.47Z"/>
  <path d="M0,53.85C0,19.03,20.64,0,56.75,0h117.38c36.12,0,56.75,19.03,56.75,53.85s-20.64,53.85-56.75,53.85H56.75C20.64,107.7,0,88.68,0,53.85Zm198.64,0c0-11.29-6.13-18.38-22.25-18.38H54.5c-16.12,0-22.25,7.09-22.25,18.38s6.13,18.38,22.25,18.38h121.89c16.12,0,22.25-7.09,22.25-18.38Z"/>
</svg>