<?xml version="1.0" encoding="UTF-8"?>
<svg id="Layer_1" data-name="Layer 1" xmlns="http://www.w3.org/2000/svg" viewBox="0 0 179.96 999.56">
  <path d="M156.33,944.26h-27.65c-16.34,0-22.37,5.53-22.37,18.1v9.55h71.63v27.65H2.01v-41.72c0-28.65,13.32-40.97,40.46-40.97h13.82c18.1,0,29.91,5.78,35.69,18.1,5.78-13.82,19.1-18.35,37.45-18.35h27.14c8.55,0,14.83-.25,21.36-3.02v28.15c-4.52,1.51-7.29,2.51-21.61,2.51Zm-75.15,27.65v-10.81c0-10.3-4.52-16.59-18.6-16.59h-17.34c-12.57,0-18.1,4.27-18.1,14.07v13.32h54.04Z"/>
  <path d="M177.94,836.94l-31.92,4.78v33.93l31.92,4.78v25.38L2.01,877.66v-40.46l175.93-28.15v27.9Zm-55.8,8.55l-88.97,13.32,88.97,13.32v-26.64Z"/>
  <path d="M76.15,730.63h25.13v37.95h51.52v-47.75h25.13v75.4H2.01v-75.4H27.14v47.75h49.01v-37.95Z"/>
  <path d="M76.15,638.14h25.13v37.95h51.52v-47.75h25.13v75.4H2.01v-75.4H27.14v47.75h49.01v-37.95Z"/>
  <path d="M0,574.05c0-26.89,16.09-40.72,44.23-40.72h5.53v26.14h-7.29c-12.57,0-17.34,5.03-17.34,13.82s4.78,13.82,17.34,13.82c36.19,0,42.98-54.04,93.24-54.04,28.15,0,44.23,14.07,44.23,41.22s-16.09,41.22-44.23,41.22h-10.81v-26.14h12.57c12.57,0,17.09-5.53,17.09-14.33s-4.52-14.33-17.09-14.33c-36.19,0-42.98,54.04-93.24,54.04-28.15,0-44.23-13.82-44.23-40.72Z"/>
  <path d="M42.48,395.6h6.28c18.1,0,29.66,5.53,35.44,17.84,5.78-14.83,19.1-20.61,37.7-20.61h14.33c27.14,0,41.72,14.33,41.72,41.97v43.48H2.01v-41.72c0-28.65,13.32-40.97,40.46-40.97Zm31.17,55.04v-10.81c0-10.3-4.52-16.59-18.6-16.59h-9.8c-12.57,0-18.1,4.27-18.1,14.07v13.32h46.5Zm79.17,0v-15.83c0-9.3-4.27-14.33-17.34-14.33h-15.33c-16.34,0-21.36,5.28-21.36,17.84v12.32h54.04Z"/>
  <path d="M156.33,320.95h-27.65c-16.34,0-22.37,5.53-22.37,18.1v9.55h71.63v27.65H2.01v-41.72c0-28.65,13.32-40.97,40.46-40.97h13.82c18.1,0,29.91,5.78,35.69,18.1,5.78-13.82,19.1-18.35,37.45-18.35h27.14c8.55,0,14.83-.25,21.36-3.02v28.15c-4.52,1.51-7.29,2.51-21.61,2.51Zm-75.15,27.65v-10.81c0-10.3-4.52-16.59-18.6-16.59h-17.34c-12.57,0-18.1,4.27-18.1,14.07v13.32h54.04Z"/>
  <path d="M76.15,209.61h25.13v37.95h51.52v-47.75h25.13v75.4H2.01v-75.4H27.14v47.75h49.01v-37.95Z"/>
  <path d="M177.94,158.09v24.88H2.01v-34.68l105.31-28.4H2.01v-24.63H177.94v28.4l-127.43,34.43h127.43Z"/>
  <path d="M76.15,9.8h25.13V47.75h51.52V0h25.13V75.4H2.01V0H27.14V47.75h49.01V9.8Z"/>
</svg>